<svg width="28" height="28" viewBox="0 0 28 28" fill="none" xmlns="http://www.w3.org/2000/svg">
<path d="M14.0249 0.104492C6.3082 0.104492 0.0507812 6.46744 0.0507812 14.3171C0.0507812 20.5968 4.05478 25.9244 9.60711 27.8037C10.3055 27.9353 10.5619 27.4954 10.5619 27.12C10.5619 26.7811 10.5489 25.6615 10.5429 24.4739C6.65531 25.3336 5.83498 22.7969 5.83498 22.7969C5.19931 21.1541 4.28341 20.7173 4.28341 20.7173C3.01554 19.8351 4.37898 19.8533 4.37898 19.8533C5.78222 19.9533 6.5211 21.3179 6.5211 21.3179C7.76744 23.4908 9.79015 22.8626 10.5876 22.4994C10.713 21.581 11.0751 20.9536 11.4748 20.5989C8.37095 20.2395 5.10814 19.0208 5.10814 13.5748C5.10814 12.0231 5.65402 10.7552 6.54794 9.75988C6.40285 9.40166 5.92453 7.95632 6.68331 5.9986C6.68331 5.9986 7.85677 5.61661 10.5272 7.45548C11.6419 7.14056 12.8373 6.98264 14.0249 6.97722C15.2124 6.98264 16.4088 7.14056 17.5256 7.45548C20.1927 5.61661 21.3646 5.9986 21.3646 5.9986C22.1252 7.95632 21.6467 9.40166 21.5016 9.75988C22.3976 10.7552 22.9397 12.0231 22.9397 13.5748C22.9397 19.0337 19.6707 20.2357 16.559 20.5876C17.0602 21.0287 17.5068 21.8936 17.5068 23.2196C17.5068 25.1211 17.4906 26.6516 17.4906 27.12C17.4906 27.4982 17.7422 27.9414 18.4505 27.8018C23.9998 25.9204 27.9987 20.5947 27.9987 14.3171C27.9987 6.46744 21.7422 0.104492 14.0249 0.104492Z" fill="white"/>
<path d="M5.34299 20.5105C5.31222 20.5813 5.20299 20.6023 5.10349 20.5538C5.00213 20.5074 4.94521 20.4112 4.97807 20.3403C5.00815 20.2676 5.11761 20.2476 5.21873 20.2958C5.32032 20.3424 5.37817 20.4396 5.34299 20.5105Z" fill="white"/>
<path d="M5.91037 21.1529C5.84372 21.2157 5.71344 21.1865 5.62505 21.0872C5.53364 20.9881 5.51652 20.8556 5.58409 20.7918C5.65281 20.729 5.77916 20.7584 5.8708 20.8575C5.9622 20.9578 5.98002 21.0893 5.91037 21.1529Z" fill="white"/>
<path d="M6.46014 21.9715C6.37452 22.032 6.23452 21.9753 6.14797 21.8489C6.06235 21.7225 6.06235 21.5709 6.14982 21.5102C6.2366 21.4495 6.37452 21.5041 6.46222 21.6295C6.54761 21.7578 6.54761 21.9096 6.46014 21.9715Z" fill="white"/>
<path d="M7.21578 22.7621C7.13918 22.848 6.97604 22.8249 6.85663 22.7077C6.73445 22.5931 6.70044 22.4304 6.77726 22.3445C6.85478 22.2584 7.01885 22.2826 7.13918 22.3989C7.26044 22.5133 7.29746 22.6771 7.21578 22.7621Z" fill="white"/>
<path d="M8.25641 23.2216C8.22262 23.3329 8.0655 23.3835 7.90722 23.3362C7.74917 23.2875 7.64573 23.1571 7.67766 23.0446C7.71052 22.9325 7.86834 22.8798 8.02778 22.9304C8.1856 22.9789 8.28927 23.1084 8.25641 23.2216Z" fill="white"/>
<path d="M9.39932 23.307C9.40326 23.4243 9.26904 23.5215 9.10289 23.5233C8.93582 23.5273 8.80068 23.4325 8.79883 23.3172C8.79883 23.1988 8.93003 23.1025 9.09711 23.0997C9.26326 23.0964 9.39932 23.1905 9.39932 23.307Z" fill="white"/>
<path d="M10.4649 23.1225C10.4848 23.2369 10.3694 23.3543 10.2044 23.3854C10.0422 23.4157 9.89198 23.3451 9.87139 23.2317C9.85125 23.1145 9.96881 22.997 10.1308 22.9667C10.296 22.9375 10.4439 23.0062 10.4649 23.1225Z" fill="white"/>
</svg>
